<svg xmlns="http://www.w3.org/2000/svg" xmlns:xlink="http://www.w3.org/1999/xlink" width="840" height="756.4300000000001"><rect width="840" height="756.4300000000001" rx="0" ry="0" class="a"></rect><svg height="716.4300000000001" viewBox="0 0 80 71.643" width="800" x="20" xmlns="http://www.w3.org/2000/svg" xmlns:xlink="http://www.w3.org/1999/xlink" y="20"><style>.a{fill:rgb(0,43,54)}.b{font-family:'Fira Code',Monaco,Consolas,Menlo,'Bitstream Vera Sans Mono','Powerline Symbols',monospace}.c{fill:transparent}.d{fill:rgb(133,153,0);white-space:pre}.e{fill:rgb(131,148,150);white-space:pre}.f{fill:rgb(131,148,150);font-style:italic;white-space:pre}.g{fill:rgb(0,43,54);white-space:pre}.h{fill:rgb(38,139,210);white-space:pre}.i{fill:rgb(42,161,152);white-space:pre}.j{fill:rgb(158,158,158);white-space:pre}.k{fill:rgb(178,178,178);white-space:pre}</style><g font-family="&#x27;Fira Code&#x27;,Monaco,Consolas,Menlo,&#x27;Bitstream Vera Sans Mono&#x27;,&#x27;Powerline Symbols&#x27;,monospace" font-size="1.67" class="b"><defs><symbol id="a"><rect height="33" width="80" x="0" y="0" class="c"></rect></symbol></defs><rect height="71.643" width="80" class="a"></rect><svg x="0" y="0" width="80"><svg x="0"><use xlink:href="#a"></use><text font-size="1.67" x="0" y="1.67" class="d">✔</text><text font-size="1.67" x="2.004" y="1.67" class="e">Loading</text><text font-size="1.67" x="10.02" y="1.67" class="e">metadata</text><text font-size="1.67" x="19.037999999999997" y="1.67" class="e">database</text><text font-size="1.67" x="28.055999999999997" y="1.67" class="e">...</text><text font-size="1.67" x="32.064" y="1.67" class="e">done</text><text font-size="1.67" x="0" y="6.012" class="e">→</text><text font-size="1.67" x="2.004" y="6.012" class="e">Will</text><text font-size="1.67" x="7.013999999999999" y="6.012" class="f">install</text><text font-size="1.67" x="15.029999999999998" y="6.012" class="e">11</text><text font-size="1.67" x="18.035999999999998" y="6.012" class="e">packages.</text><text font-size="1.67" x="0" y="8.183" class="e">→</text><text font-size="1.67" x="2.004" y="8.183" class="e">All</text><text font-size="1.67" x="6.012" y="8.183" class="e">11</text><text font-size="1.67" x="9.017999999999999" y="8.183" class="e">packages</text><text font-size="1.67" x="18.035999999999998" y="8.183" class="e">(7.48</text><text font-size="1.67" x="24.048" y="8.183" class="e">MB)</text><text font-size="1.67" x="28.055999999999997" y="8.183" class="e">are</text><text font-size="1.67" x="32.064" y="8.183" class="e">cached.</text><text font-size="1.67" x="0" y="10.354" class="g">+</text><text font-size="1.67" x="2.004" y="10.354" class="h">cli</text><text font-size="1.67" x="14.027999999999999" y="10.354" class="e">3.4.1</text><text font-size="1.67" x="0" y="12.525" class="g">+</text><text font-size="1.67" x="2.004" y="12.525" class="h">fansi</text><text font-size="1.67" x="14.027999999999999" y="12.525" class="e">1.0.3</text><text font-size="1.67" x="0" y="14.696" class="g">+</text><text font-size="1.67" x="2.004" y="14.696" class="h">glue</text><text font-size="1.67" x="14.027999999999999" y="14.696" class="e">1.6.2</text><text font-size="1.67" x="0" y="16.866999999999997" class="g">+</text><text font-size="1.67" x="2.004" y="16.866999999999997" class="h">lifecycle</text><text font-size="1.67" x="14.027999999999999" y="16.866999999999997" class="e">1.0.3</text><text font-size="1.67" x="0" y="19.037999999999997" class="g">+</text><text font-size="1.67" x="2.004" y="19.037999999999997" class="h">magrittr</text><text font-size="1.67" x="14.027999999999999" y="19.037999999999997" class="e">2.0.3</text><text font-size="1.67" x="0" y="21.209000000000003" class="g">+</text><text font-size="1.67" x="2.004" y="21.209000000000003" class="h">pillar</text><text font-size="1.67" x="14.027999999999999" y="21.209000000000003" class="e">1.8.1</text><text font-size="1.67" x="0" y="23.380000000000003" class="g">+</text><text font-size="1.67" x="2.004" y="23.380000000000003" class="h">pkgconfig</text><text font-size="1.67" x="14.027999999999999" y="23.380000000000003" class="e">2.0.3</text><text font-size="1.67" x="0" y="25.550999999999995" class="g">+</text><text font-size="1.67" x="2.004" y="25.550999999999995" class="h">rlang</text><text font-size="1.67" x="14.027999999999999" y="25.550999999999995" class="e">1.0.6</text><text font-size="1.67" x="0" y="27.722" class="g">+</text><text font-size="1.67" x="2.004" y="27.722" class="h">tibble</text><text font-size="1.67" x="14.027999999999999" y="27.722" class="e">3.1.8</text><text font-size="1.67" x="0" y="29.893" class="g">+</text><text font-size="1.67" x="2.004" y="29.893" class="h">utf8</text><text font-size="1.67" x="14.027999999999999" y="29.893" class="e">1.2.2</text><text font-size="1.67" x="0" y="32.064" class="g">+</text><text font-size="1.67" x="2.004" y="32.064" class="h">vctrs</text><text font-size="1.67" x="14.027999999999999" y="32.064" class="e">0.5.1</text><text font-size="1.67" x="0" y="34.235" class="i">ℹ</text><text font-size="1.67" x="2.004" y="34.235" class="e">No</text><text font-size="1.67" x="5.01" y="34.235" class="e">downloads</text><text font-size="1.67" x="15.029999999999998" y="34.235" class="e">are</text><text font-size="1.67" x="19.037999999999997" y="34.235" class="e">needed,</text><text font-size="1.67" x="27.054" y="34.235" class="e">11</text><text font-size="1.67" x="30.059999999999995" y="34.235" class="e">pkgs</text><text font-size="1.67" x="35.06999999999999" y="34.235" class="e">(7.48</text><text font-size="1.67" x="41.082" y="34.235" class="e">MB)</text><text font-size="1.67" x="45.089999999999996" y="34.235" class="e">are</text><text font-size="1.67" x="49.098" y="34.235" class="e">cached</text><text font-size="1.67" x="0" y="36.406" class="d">✔</text><text font-size="1.67" x="2.004" y="36.406" class="e">Got</text><text font-size="1.67" x="6.012" y="36.406" class="h">pkgconfig</text><text font-size="1.67" x="16.032" y="36.406" class="e">2.0.3</text><text font-size="1.67" x="22.043999999999997" y="36.406" class="e">(aarch64-apple-darwin20)</text><text font-size="1.67" x="47.093999999999994" y="36.406" class="e">(17.70</text><text font-size="1.67" x="54.108" y="36.406" class="e">kB)</text><text font-size="1.67" x="0" y="38.577000000000005" class="d">✔</text><text font-size="1.67" x="2.004" y="38.577000000000005" class="e">Got</text><text font-size="1.67" x="6.012" y="38.577000000000005" class="h">glue</text><text font-size="1.67" x="11.021999999999998" y="38.577000000000005" class="e">1.6.2</text><text font-size="1.67" x="17.034" y="38.577000000000005" class="e">(aarch64-apple-darwin20)</text><text font-size="1.67" x="42.083999999999996" y="38.577000000000005" class="e">(154.64</text><text font-size="1.67" x="50.1" y="38.577000000000005" class="e">kB)</text><text font-size="1.67" x="0" y="40.748000000000005" class="d">✔</text><text font-size="1.67" x="2.004" y="40.748000000000005" class="e">Got</text><text font-size="1.67" x="6.012" y="40.748000000000005" class="h">magrittr</text><text font-size="1.67" x="15.029999999999998" y="40.748000000000005" class="e">2.0.3</text><text font-size="1.67" x="21.041999999999998" y="40.748000000000005" class="e">(aarch64-apple-darwin20)</text><text font-size="1.67" x="46.09199999999999" y="40.748000000000005" class="e">(231.25</text><text font-size="1.67" x="54.108" y="40.748000000000005" class="e">kB)</text><text font-size="1.67" x="0" y="42.919" class="d">✔</text><text font-size="1.67" x="2.004" y="42.919" class="e">Got</text><text font-size="1.67" x="6.012" y="42.919" class="h">tibble</text><text font-size="1.67" x="13.026" y="42.919" class="e">3.1.8</text><text font-size="1.67" x="19.037999999999997" y="42.919" class="e">(aarch64-apple-darwin20)</text><text font-size="1.67" x="44.087999999999994" y="42.919" class="e">(724.32</text><text font-size="1.67" x="52.104" y="42.919" class="e">kB)</text><text font-size="1.67" x="0" y="45.09" class="d">✔</text><text font-size="1.67" x="2.004" y="45.09" class="e">Got</text><text font-size="1.67" x="6.012" y="45.09" class="h">rlang</text><text font-size="1.67" x="12.024" y="45.09" class="e">1.0.6</text><text font-size="1.67" x="18.035999999999998" y="45.09" class="e">(aarch64-apple-darwin20)</text><text font-size="1.67" x="43.086" y="45.09" class="e">(1.83</text><text font-size="1.67" x="49.098" y="45.09" class="e">MB)</text><text font-size="1.67" x="0" y="47.261" class="d">✔</text><text font-size="1.67" x="2.004" y="47.261" class="e">Installed</text><text font-size="1.67" x="12.024" y="47.261" class="h">cli</text><text font-size="1.67" x="16.032" y="47.261" class="e">3.4.1</text><text font-size="1.67" x="23.045999999999996" y="47.261" class="j">(54ms)</text><text font-size="1.67" x="0" y="49.431999999999995" class="d">✔</text><text font-size="1.67" x="2.004" y="49.431999999999995" class="e">Installed</text><text font-size="1.67" x="12.024" y="49.431999999999995" class="h">fansi</text><text font-size="1.67" x="18.035999999999998" y="49.431999999999995" class="e">1.0.3</text><text font-size="1.67" x="25.05" y="49.431999999999995" class="j">(65ms)</text><text font-size="1.67" x="0" y="51.603" class="d">✔</text><text font-size="1.67" x="2.004" y="51.603" class="e">Installed</text><text font-size="1.67" x="12.024" y="51.603" class="h">glue</text><text font-size="1.67" x="17.034" y="51.603" class="e">1.6.2</text><text font-size="1.67" x="24.048" y="51.603" class="j">(97ms)</text><text font-size="1.67" x="0" y="53.774" class="d">✔</text><text font-size="1.67" x="2.004" y="53.774" class="e">Installed</text><text font-size="1.67" x="12.024" y="53.774" class="h">lifecycle</text><text font-size="1.67" x="22.043999999999997" y="53.774" class="e">1.0.3</text><text font-size="1.67" x="29.058" y="53.774" class="j">(116ms)</text><text font-size="1.67" x="0" y="55.945" class="d">✔</text><text font-size="1.67" x="2.004" y="55.945" class="e">Installed</text><text font-size="1.67" x="12.024" y="55.945" class="h">magrittr</text><text font-size="1.67" x="21.041999999999998" y="55.945" class="e">2.0.3</text><text font-size="1.67" x="28.055999999999997" y="55.945" class="j">(127ms)</text><text font-size="1.67" x="0" y="58.11600000000001" class="d">✔</text><text font-size="1.67" x="2.004" y="58.11600000000001" class="e">Installed</text><text font-size="1.67" x="12.024" y="58.11600000000001" class="h">pillar</text><text font-size="1.67" x="19.037999999999997" y="58.11600000000001" class="e">1.8.1</text><text font-size="1.67" x="26.052" y="58.11600000000001" class="j">(141ms)</text><text font-size="1.67" x="0" y="60.287" class="d">✔</text><text font-size="1.67" x="2.004" y="60.287" class="e">Installed</text><text font-size="1.67" x="12.024" y="60.287" class="h">pkgconfig</text><text font-size="1.67" x="22.043999999999997" y="60.287" class="e">2.0.3</text><text font-size="1.67" x="29.058" y="60.287" class="j">(154ms)</text><text font-size="1.67" x="0" y="62.458" class="d">✔</text><text font-size="1.67" x="2.004" y="62.458" class="e">Installed</text><text font-size="1.67" x="12.024" y="62.458" class="h">rlang</text><text font-size="1.67" x="18.035999999999998" y="62.458" class="e">1.0.6</text><text font-size="1.67" x="25.05" y="62.458" class="j">(180ms)</text><text font-size="1.67" x="0" y="64.629" class="d">✔</text><text font-size="1.67" x="2.004" y="64.629" class="e">Installed</text><text font-size="1.67" x="12.024" y="64.629" class="h">tibble</text><text font-size="1.67" x="19.037999999999997" y="64.629" class="e">3.1.8</text><text font-size="1.67" x="26.052" y="64.629" class="j">(124ms)</text><text font-size="1.67" x="0" y="66.8" class="d">✔</text><text font-size="1.67" x="2.004" y="66.8" class="e">Installed</text><text font-size="1.67" x="12.024" y="66.8" class="h">utf8</text><text font-size="1.67" x="17.034" y="66.8" class="e">1.2.2</text><text font-size="1.67" x="24.048" y="66.8" class="j">(36ms)</text><text font-size="1.67" x="0" y="68.971" class="d">✔</text><text font-size="1.67" x="2.004" y="68.971" class="e">Installed</text><text font-size="1.67" x="12.024" y="68.971" class="h">vctrs</text><text font-size="1.67" x="18.035999999999998" y="68.971" class="e">0.5.1</text><text font-size="1.67" x="25.05" y="68.971" class="j">(33ms)</text><text font-size="1.67" x="0" y="71.142" class="d">✔</text><text font-size="1.67" x="2.004" y="71.142" class="e">1</text><text font-size="1.67" x="4.008" y="71.142" class="e">pkg</text><text font-size="1.67" x="8.016" y="71.142" class="e">+</text><text font-size="1.67" x="10.02" y="71.142" class="e">10</text><text font-size="1.67" x="13.026" y="71.142" class="e">deps:</text><text font-size="1.67" x="19.037999999999997" y="71.142" class="e">added</text><text font-size="1.67" x="25.05" y="71.142" class="e">11,</text><text font-size="1.67" x="29.058" y="71.142" class="e">dld</text><text font-size="1.67" x="33.065999999999995" y="71.142" class="e">5</text><text font-size="1.67" x="35.06999999999999" y="71.142" class="e">(2.95</text><text font-size="1.67" x="41.082" y="71.142" class="e">MB)</text><text font-size="1.67" x="45.089999999999996" y="71.142" class="k">[6.8s]</text></svg></svg></g></svg></svg>