<svg xmlns="http://www.w3.org/2000/svg" xmlns:xlink="http://www.w3.org/1999/xlink" width="840" height="561.04"><rect width="840" height="561.04" rx="0" ry="0" class="a"></rect><svg height="521.04" viewBox="0 0 80 52.104" width="800" x="20" xmlns="http://www.w3.org/2000/svg" xmlns:xlink="http://www.w3.org/1999/xlink" y="20"><style>.a{fill:rgb(22,27,34)}.b{font-family:'Fira Code',Monaco,Consolas,Menlo,'Bitstream Vera Sans Mono','Powerline Symbols',monospace}.c{fill:transparent}.d{fill:rgb(42,161,152);font-style:italic;font-weight:bold;white-space:pre}.e{fill:rgb(117,113,94);font-style:italic;font-weight:bold;white-space:pre}.f{fill:rgb(133,153,0);white-space:pre}.g{fill:rgb(201,209,217);white-space:pre}.h{fill:rgb(117,113,94);white-space:pre}</style><g font-family="&#x27;Fira Code&#x27;,Monaco,Consolas,Menlo,&#x27;Bitstream Vera Sans Mono&#x27;,&#x27;Powerline Symbols&#x27;,monospace" font-size="1.67" class="b"><defs><symbol id="a"><rect height="24" width="80" x="0" y="0" class="c"></rect></symbol></defs><rect height="52.104" width="80" class="a"></rect><svg x="0" y="0" width="80"><svg x="0"><use xlink:href="#a"></use><text font-size="1.67" x="0" y="1.67" class="d">tibble</text><text font-size="1.67" x="7.013999999999999" y="1.67" class="e">3.1.8</text><text font-size="1.67" x="13.026" y="1.67" class="f">✨</text><text font-size="1.67" x="0" y="3.8409999999999997" class="g">├─fansi</text><text font-size="1.67" x="8.016" y="3.8409999999999997" class="h">1.0.3</text><text font-size="1.67" x="14.027999999999999" y="3.8409999999999997" class="f">✨</text><text font-size="1.67" x="0" y="6.012" class="g">├─lifecycle</text><text font-size="1.67" x="12.024" y="6.012" class="h">1.0.3</text><text font-size="1.67" x="18.035999999999998" y="6.012" class="f">✨</text><text font-size="1.67" x="0" y="8.183" class="g">│</text><text font-size="1.67" x="2.004" y="8.183" class="g">├─cli</text><text font-size="1.67" x="8.016" y="8.183" class="h">3.4.1</text><text font-size="1.67" x="14.027999999999999" y="8.183" class="f">✨</text><text font-size="1.67" x="0" y="10.354" class="g">│</text><text font-size="1.67" x="2.004" y="10.354" class="g">├─glue</text><text font-size="1.67" x="9.017999999999999" y="10.354" class="h">1.6.2</text><text font-size="1.67" x="15.029999999999998" y="10.354" class="f">✨</text><text font-size="1.67" x="0" y="12.525" class="g">│</text><text font-size="1.67" x="2.004" y="12.525" class="g">└─rlang</text><text font-size="1.67" x="10.02" y="12.525" class="h">1.0.6</text><text font-size="1.67" x="16.032" y="12.525" class="f">✨</text><text font-size="1.67" x="0" y="14.696" class="g">├─magrittr</text><text font-size="1.67" x="11.021999999999998" y="14.696" class="h">2.0.3</text><text font-size="1.67" x="17.034" y="14.696" class="f">✨</text><text font-size="1.67" x="0" y="16.866999999999997" class="g">├─pillar</text><text font-size="1.67" x="9.017999999999999" y="16.866999999999997" class="h">1.8.1</text><text font-size="1.67" x="15.029999999999998" y="16.866999999999997" class="f">✨</text><text font-size="1.67" x="0" y="19.037999999999997" class="g">│</text><text font-size="1.67" x="2.004" y="19.037999999999997" class="g">├─cli</text><text font-size="1.67" x="0" y="21.209000000000003" class="g">│</text><text font-size="1.67" x="2.004" y="21.209000000000003" class="g">├─fansi</text><text font-size="1.67" x="0" y="23.380000000000003" class="g">│</text><text font-size="1.67" x="2.004" y="23.380000000000003" class="g">├─glue</text><text font-size="1.67" x="0" y="25.550999999999995" class="g">│</text><text font-size="1.67" x="2.004" y="25.550999999999995" class="g">├─lifecycle</text><text font-size="1.67" x="0" y="27.722" class="g">│</text><text font-size="1.67" x="2.004" y="27.722" class="g">├─rlang</text><text font-size="1.67" x="0" y="29.893" class="g">│</text><text font-size="1.67" x="2.004" y="29.893" class="g">├─utf8</text><text font-size="1.67" x="9.017999999999999" y="29.893" class="h">1.2.2</text><text font-size="1.67" x="15.029999999999998" y="29.893" class="f">✨</text><text font-size="1.67" x="0" y="32.064" class="g">│</text><text font-size="1.67" x="2.004" y="32.064" class="g">└─vctrs</text><text font-size="1.67" x="10.02" y="32.064" class="h">0.5.1</text><text font-size="1.67" x="16.032" y="32.064" class="f">✨</text><text font-size="1.67" x="0" y="34.235" class="g">│</text><text font-size="1.67" x="4.008" y="34.235" class="g">├─cli</text><text font-size="1.67" x="0" y="36.406" class="g">│</text><text font-size="1.67" x="4.008" y="36.406" class="g">├─glue</text><text font-size="1.67" x="0" y="38.577000000000005" class="g">│</text><text font-size="1.67" x="4.008" y="38.577000000000005" class="g">├─lifecycle</text><text font-size="1.67" x="0" y="40.748000000000005" class="g">│</text><text font-size="1.67" x="4.008" y="40.748000000000005" class="g">└─rlang</text><text font-size="1.67" x="0" y="42.919" class="g">├─pkgconfig</text><text font-size="1.67" x="12.024" y="42.919" class="h">2.0.3</text><text font-size="1.67" x="18.035999999999998" y="42.919" class="f">✨</text><text font-size="1.67" x="0" y="45.09" class="g">├─rlang</text><text font-size="1.67" x="0" y="47.261" class="g">└─vctrs</text><text font-size="1.67" x="0" y="51.603" class="g">Key:</text><text font-size="1.67" x="6.012" y="51.603" class="f">✨</text><text font-size="1.67" x="8.016" y="51.603" class="g">new</text></svg></svg></g></svg></svg>