<svg xmlns="http://www.w3.org/2000/svg" xmlns:xlink="http://www.w3.org/1999/xlink" width="1040" height="170.26"><rect width="1040" height="170.26" rx="0" ry="0" class="a"></rect><svg height="130.26" viewBox="0 0 100 13.026" width="1000" x="20" xmlns="http://www.w3.org/2000/svg" xmlns:xlink="http://www.w3.org/1999/xlink" y="20"><style>.a{fill:rgb(241,243,245)}.b{font-family:'Fira Code',Monaco,Consolas,Menlo,'Bitstream Vera Sans Mono','Powerline Symbols',monospace}.c{fill:transparent}.d{fill:rgb(23,36,49);white-space:pre}</style><g font-family="&#x27;Fira Code&#x27;,Monaco,Consolas,Menlo,&#x27;Bitstream Vera Sans Mono&#x27;,&#x27;Powerline Symbols&#x27;,monospace" font-size="1.67" class="b"><defs><symbol id="a"><rect height="6" width="100" x="0" y="0" class="c"></rect></symbol></defs><rect height="13.026" width="100" class="a"></rect><svg x="0" y="0" width="100"><svg x="0"><use xlink:href="#a"></use><text font-size="1.67" x="0" y="1.67" class="d">tibble</text><text font-size="1.67" x="7.013999999999999" y="1.67" class="d">-&gt;</text><text font-size="1.67" x="10.02" y="1.67" class="d">lifecycle</text><text font-size="1.67" x="20.04" y="1.67" class="d">-&gt;</text><text font-size="1.67" x="23.045999999999996" y="1.67" class="d">rlang</text><text font-size="1.67" x="0" y="3.8409999999999997" class="d">tibble</text><text font-size="1.67" x="7.013999999999999" y="3.8409999999999997" class="d">-&gt;</text><text font-size="1.67" x="10.02" y="3.8409999999999997" class="d">pillar</text><text font-size="1.67" x="17.034" y="3.8409999999999997" class="d">-&gt;</text><text font-size="1.67" x="20.04" y="3.8409999999999997" class="d">lifecycle</text><text font-size="1.67" x="30.059999999999995" y="3.8409999999999997" class="d">-&gt;</text><text font-size="1.67" x="33.065999999999995" y="3.8409999999999997" class="d">rlang</text><text font-size="1.67" x="0" y="6.012" class="d">tibble</text><text font-size="1.67" x="7.013999999999999" y="6.012" class="d">-&gt;</text><text font-size="1.67" x="10.02" y="6.012" class="d">pillar</text><text font-size="1.67" x="17.034" y="6.012" class="d">-&gt;</text><text font-size="1.67" x="20.04" y="6.012" class="d">rlang</text><text font-size="1.67" x="0" y="8.183" class="d">tibble</text><text font-size="1.67" x="7.013999999999999" y="8.183" class="d">-&gt;</text><text font-size="1.67" x="10.02" y="8.183" class="d">pillar</text><text font-size="1.67" x="17.034" y="8.183" class="d">-&gt;</text><text font-size="1.67" x="20.04" y="8.183" class="d">vctrs</text><text font-size="1.67" x="26.052" y="8.183" class="d">-&gt;</text><text font-size="1.67" x="29.058" y="8.183" class="d">rlang</text><text font-size="1.67" x="0" y="10.354" class="d">tibble</text><text font-size="1.67" x="7.013999999999999" y="10.354" class="d">-&gt;</text><text font-size="1.67" x="10.02" y="10.354" class="d">rlang</text><text font-size="1.67" x="0" y="12.525" class="d">tibble</text><text font-size="1.67" x="7.013999999999999" y="12.525" class="d">-&gt;</text><text font-size="1.67" x="10.02" y="12.525" class="d">vctrs</text><text font-size="1.67" x="16.032" y="12.525" class="d">-&gt;</text><text font-size="1.67" x="19.037999999999997" y="12.525" class="d">rlang</text></svg></svg></g></svg></svg>